#N canvas 946 20 959 976 12;
#X obj 304 144 delwrite~ chorus 1000;
#X obj 306 393 delread4~ chorus 1000;
#X floatatom 306 218 5 0 6 1 rate - - 0;
#X obj 306 243 osc~;
#X obj 306 268 *~;
#X floatatom 351 245 5 0 1 1 depth - - 0;
#X obj 306 325 +~;
#X msg 434 245 \$1 20;
#X obj 434 270 line~;
#X floatatom 434 219 5 20 40 1 del_time - - 0;
#X text 349 324 modulation du temps du delay par un lfo;
#X obj 306 190 r lfo;
#X obj 351 190 r depth;
#X obj 434 189 r chorus-delay;
#X obj 306 418 *~ 0.84;
#X obj 268 87 inlet~;
#X obj 268 593 outlet~;
#X obj 269 529 *~ 1;
#X connect 1 0 14 0;
#X connect 2 0 3 0;
#X connect 3 0 4 0;
#X connect 4 0 6 0;
#X connect 5 0 4 1;
#X connect 6 0 1 0;
#X connect 7 0 8 0;
#X connect 8 0 6 1;
#X connect 9 0 7 0;
#X connect 11 0 2 0;
#X connect 12 0 5 0;
#X connect 13 0 9 0;
#X connect 14 0 17 0;
#X connect 15 0 0 0;
#X connect 15 0 17 0;
#X connect 17 0 16 0;
#X coords 0 976 1 975 150 150 0;
