#N canvas 960 0 959 976 12;
#X obj 272 592 dac~;
#X obj 304 144 delwrite~ chorus 1000;
#X obj 306 393 delread4~ chorus 1000;
#X obj 269 48 sfplay2;
#X obj 270 528 *~;
#X floatatom 306 218 5 0 6 1 rate - - 0;
#X obj 306 243 osc~;
#X obj 306 268 *~;
#X floatatom 351 245 5 0 1 1 depth - - 0;
#X obj 306 325 +~;
#X msg 434 245 \$1 20;
#X obj 434 270 line~;
#X floatatom 434 219 5 20 40 1 del_time - - 0;
#X obj 306 468 *~;
#X floatatom 325 428 5 0 1 1 fx_amount - - 0;
#X floatatom 306 501 5 0 2 0 - - - 0;
#X text 304 198 LFO;
#X text 349 324 modulation du temps du delay par un lfo;
#X connect 2 0 13 0;
#X connect 3 0 1 0;
#X connect 3 0 4 0;
#X connect 4 0 0 0;
#X connect 4 0 0 1;
#X connect 5 0 6 0;
#X connect 6 0 7 0;
#X connect 7 0 9 0;
#X connect 8 0 7 1;
#X connect 9 0 2 0;
#X connect 10 0 11 0;
#X connect 11 0 9 1;
#X connect 12 0 10 0;
#X connect 13 0 4 0;
#X connect 14 0 13 1;
#X connect 15 0 4 1;
