#N canvas 214 0 1085 949 12;
#X obj 162 182 delwrite~ tapedelay 2000;
#X obj 562 339 delread4~ tapedelay;
#X obj 11 410 *~;
#X floatatom 58 355 5 0 1 0 dry - - 0;
#X obj 75 520 dac~;
#X obj 562 313 line~;
#X msg 562 287 \$1 100;
#X floatatom 456 236 5 100 2000 0 delay\ time - - 0;
#X obj 563 483 lop~ 8000;
#X obj 564 511 lop~ 8000;
#X obj 564 536 hip~ 300;
#X obj 563 627 s~ feedback;
#X obj 172 137 r~ feedback;
#X obj 564 600 *~;
#X floatatom 705 595 5 0 0.98 0 feedback - - 0;
#X obj 118 407 *~;
#X floatatom 136 355 5 0 1 0 wet - - 0;
#X floatatom 744 479 5 1000 10000 0 - - - 0;
#X floatatom 797 525 5 300 1000 0 - - - 0;
#X obj 456 56 taptempo;
#X obj 41 24 sfplay2;
#X obj 625 379 delwrite~ chorus 1000;
#X obj 223 541 delread4~ chorus 1000;
#X floatatom 223 325 5 0 6 1 rate - - 0;
#X obj 223 351 osc~;
#X obj 223 416 *~;
#X floatatom 263 393 5 0 1 1 depth - - 0;
#X obj 223 473 +~;
#X msg 351 393 \$1 20;
#X obj 351 418 line~;
#X floatatom 351 366 5 20 40 1 del_time - - 0;
#X obj 223 616 *~;
#X floatatom 266 678 5 0 1 1 fx_amount - - 0;
#X text 221 305 LFO;
#X text 266 472 modulation du temps du delay par un lfo;
#X msg 58 317 0.7;
#X obj 644 27 bng 20 250 50 0 empty empty empty 0 -10 0 12 #ff0400 #000000 #000000;
#X obj 644 52 s reset;
#X obj 58 284 r reset;
#X obj 136 284 r reset;
#X msg 136 315 0.3;
#X obj 225 242 r reset;
#X msg 225 273 1;
#X obj 301 311 r reset;
#X msg 301 342 0.6;
#X obj 367 275 r reset;
#X msg 367 306 20;
#X obj 266 605 r reset;
#X msg 266 636 0.8;
#X obj 744 412 r reset;
#X msg 744 443 8000;
#X obj 798 461 r reset;
#X msg 799 492 300;
#X obj 706 531 r reset;
#X msg 706 562 0.5;
#X connect 1 0 8 0;
#X connect 1 0 21 0;
#X connect 2 0 4 0;
#X connect 2 0 4 1;
#X connect 3 0 2 1;
#X connect 5 0 1 0;
#X connect 6 0 5 0;
#X connect 7 0 6 0;
#X connect 8 0 9 0;
#X connect 9 0 10 0;
#X connect 10 0 13 0;
#X connect 12 0 0 0;
#X connect 13 0 11 0;
#X connect 14 0 13 1;
#X connect 15 0 4 0;
#X connect 15 0 4 1;
#X connect 16 0 15 1;
#X connect 17 0 8 1;
#X connect 17 0 9 1;
#X connect 18 0 10 1;
#X connect 19 0 7 0;
#X connect 20 0 2 0;
#X connect 20 0 0 0;
#X connect 22 0 31 0;
#X connect 23 0 24 0;
#X connect 24 0 25 0;
#X connect 25 0 27 0;
#X connect 26 0 25 1;
#X connect 27 0 22 0;
#X connect 28 0 29 0;
#X connect 29 0 27 1;
#X connect 30 0 28 0;
#X connect 31 0 15 0;
#X connect 32 0 31 1;
#X connect 35 0 3 0;
#X connect 36 0 37 0;
#X connect 38 0 35 0;
#X connect 39 0 40 0;
#X connect 40 0 16 0;
#X connect 41 0 42 0;
#X connect 42 0 23 0;
#X connect 43 0 44 0;
#X connect 44 0 26 0;
#X connect 45 0 46 0;
#X connect 46 0 30 0;
#X connect 47 0 48 0;
#X connect 48 0 32 0;
#X connect 49 0 50 0;
#X connect 50 0 17 0;
#X connect 51 0 52 0;
#X connect 52 0 18 0;
#X connect 53 0 54 0;
#X connect 54 0 14 0;
