#N canvas 809 128 971 766 12;
#X obj 364 307 sel 0;
#X obj 206 579 *~;
#X msg 292 431 1;
#X obj 319 579 *~;
#X msg 339 431 0;
#X msg 405 431 1;
#X msg 456 431 0;
#X obj 364 262 inlet;
#X obj 207 431 inlet~;
#X obj 206 604 outlet~;
#X obj 319 604 outlet~;
#X connect 0 0 2 0;
#X connect 0 0 4 0;
#X connect 0 1 5 0;
#X connect 0 1 6 0;
#X connect 1 0 9 0;
#X connect 2 0 1 1;
#X connect 3 0 10 0;
#X connect 4 0 3 1;
#X connect 5 0 3 1;
#X connect 6 0 1 1;
#X connect 7 0 0 0;
#X connect 8 0 1 0;
#X connect 8 0 3 0;
#X coords 0 766 1 765 85 60 0;
