#N canvas 785 20 960 983 12;
#X obj 524 266 delwrite~ ping 2000;
#X obj 559 142 delwrite~ pong 2000;
#X obj 364 453 delread4~ ping;
#X obj 508 455 delread4~ pong;
#X msg 508 383 \$1 100;
#X obj 508 408 line~;
#X obj 364 518 *~;
#X obj 508 520 *~;
#X obj 364 543 s~ ping;
#X obj 559 102 r~ ping;
#X obj 523 233 r~ pong;
#X obj 508 545 s~ pong;
#X msg 282 383 \$1 100;
#X obj 282 408 line~;
#X obj 13 30 inlet~;
#X obj 343 819 outlet~;
#X obj 426 517 inlet;
#X obj 381 331 inlet;
#X text 381 309 delay time;
#X text 427 493 feedback;
#X connect 2 0 6 0;
#X connect 3 0 7 0;
#X connect 4 0 5 0;
#X connect 5 0 3 0;
#X connect 6 0 8 0;
#X connect 6 0 15 0;
#X connect 7 0 11 0;
#X connect 7 0 15 0;
#X connect 9 0 1 0;
#X connect 10 0 0 0;
#X connect 12 0 13 0;
#X connect 13 0 2 0;
#X connect 14 0 1 0;
#X connect 14 0 0 0;
#X connect 16 0 6 1;
#X connect 16 0 7 1;
#X connect 17 0 12 0;
#X connect 17 0 4 0;
#X coords 0 983 1 982 250 200 0;
