#N canvas 946 20 960 983 12;
#X obj 266 217 delwrite~ ping 2000;
#X obj 559 142 delwrite~ pong 2000;
#X obj 364 453 delread4~ ping;
#X obj 508 455 delread4~ pong;
#X obj 171 41 sfplay2;
#X obj 170 676 *~;
#X floatatom 188 642 5 0 1 0 - - - 0;
#X obj 349 766 dac~;
#X obj 511 358 hsl 170 20 100 2000 0 0 empty empty delay\ time -2 -10 0 12 #fcfcfc #000000 #000000 0 1;
#X msg 508 383 \$1 100;
#X obj 508 408 line~;
#X obj 364 518 *~;
#X floatatom 382 490 5 0 0.7 1 feedback - - 0;
#X obj 508 520 *~;
#X floatatom 526 492 5 0 0.7 1 feedback - - 0;
#X obj 364 543 s~ ping;
#X obj 559 102 r~ ping;
#X obj 266 171 r~ pong;
#X obj 508 545 s~ pong;
#X obj 285 358 hsl 170 20 100 2000 0 0 empty empty delay\ time -2 -10 0 12 #fcfcfc #000000 #000000 0 1;
#X msg 282 383 \$1 100;
#X obj 282 408 line~;
#X connect 2 0 11 0;
#X connect 3 0 13 0;
#X connect 4 0 0 0;
#X connect 4 0 1 0;
#X connect 4 0 5 0;
#X connect 5 0 7 0;
#X connect 5 0 7 1;
#X connect 6 0 5 1;
#X connect 8 0 9 0;
#X connect 9 0 10 0;
#X connect 10 0 3 0;
#X connect 11 0 7 0;
#X connect 11 0 15 0;
#X connect 12 0 11 1;
#X connect 13 0 7 1;
#X connect 13 0 18 0;
#X connect 14 0 13 1;
#X connect 16 0 1 0;
#X connect 17 0 0 0;
#X connect 19 0 20 0;
#X connect 20 0 21 0;
#X connect 21 0 2 0;
