#N canvas 814 245 612 435 12;
#X obj 121 89 r random;
#X obj 208 152 f \$1;
#X obj 174 152 f \$2;
#X obj 125 261 random;
#X obj 121 114 t b b b b, f 12;
#X obj 164 224 expr $f1 - $f2;
#X obj 33 309 expr $f1 + $f2;
#X obj 32 235 f \$1;
#X obj 33 334 outlet;
#X connect 0 0 4 0;
#X connect 1 0 5 1;
#X connect 2 0 5 0;
#X connect 3 0 6 0;
#X connect 4 0 7 0;
#X connect 4 1 3 0;
#X connect 4 2 2 0;
#X connect 4 3 1 0;
#X connect 5 0 3 1;
#X connect 6 0 8 0;
#X connect 7 0 6 1;
