#N canvas 1228 53 635 780 12;
#X obj 384 88 openpanel;
#X obj 104 126 bng 19 250 50 0 empty empty open 22 10 0 12 #bbbbbb #000000 #000000;
#X msg 384 200 open \$1;
#X obj 415 340 hsl 162 19 0 1 0 0 empty empty empty -2 -10 0 12 #fcfcfc #000000 #000000 0 1;
#X msg 272 118 1;
#X obj 384 169 symbol;
#X obj 104 152 bng 19 250 50 0 empty empty play 22 10 0 12 #00ff04 #000000 #000000;
#X obj 272 88 t b b;
#X obj 166 152 bng 19 250 50 0 empty empty stop 22 10 0 12 #ff0400 #000000 #000000;
#X obj 336 88 t b b;
#X msg 336 118 0;
#X obj 417 116 makefilename %s;
#X obj 417 142 print Directory;
#X obj 430 266 spigot;
#X obj 166 126 tgl 19 0 empty empty loop 22 10 0 12 #fcfcfc #000000 #000000 0 1;
#X obj 430 290 s loopPlay;
#X obj 215 29 r loopPlay;
#X obj 385 379 outlet~;
#X obj 384 231 readsf~ 2;
#X connect 0 0 2 0;
#X connect 0 0 5 0;
#X connect 0 0 11 0;
#X connect 1 0 0 0;
#X connect 2 0 18 0;
#X connect 4 0 18 0;
#X connect 5 0 2 0;
#X connect 6 0 7 0;
#X connect 7 0 4 0;
#X connect 7 1 5 0;
#X connect 8 0 9 0;
#X connect 9 0 10 0;
#X connect 9 1 5 0;
#X connect 10 0 18 0;
#X connect 11 0 12 0;
#X connect 13 0 15 0;
#X connect 14 0 13 1;
#X connect 16 0 7 0;
#X connect 18 0 17 0;
#X connect 18 1 17 0;
#X connect 18 2 13 0;
#X coords 0 -1 1 1 120 80 1 100 100;
