#N canvas -14 20 960 983 12;
#X obj 55 149 delwrite~ tapedelay 2000;
#X obj 300 429 delread4~ tapedelay;
#X obj 300 403 line~;
#X msg 300 377 \$1 100;
#X obj 301 717 s~ feedback;
#X obj 65 104 r~ feedback;
#X obj 302 690 *~;
#X floatatom 580 173 5 0 0.98 0 feedback - - 0;
#X obj 56 63 inlet~;
#X obj 120 583 outlet~;
#X obj 300 332 inlet;
#X floatatom 581 128 5 0 0 0 delay\ time - - 0;
#X text 301 309 delay time;
#X obj 325 658 inlet;
#X floatatom 580 214 5 0 0 0 - - - 0;
#X floatatom 579 261 5 0 0 0 - - - 0;
#X obj 366 503 inlet;
#X obj 301 573 lop~;
#X obj 302 626 hip~;
#X obj 355 573 inlet;
#X connect 1 0 17 0;
#X connect 1 0 9 0;
#X connect 2 0 1 0;
#X connect 3 0 2 0;
#X connect 5 0 0 0;
#X connect 6 0 4 0;
#X connect 8 0 0 0;
#X connect 10 0 3 0;
#X connect 10 0 11 0;
#X connect 13 0 6 1;
#X connect 13 0 7 0;
#X connect 16 0 14 0;
#X connect 16 0 17 1;
#X connect 17 0 18 0;
#X connect 18 0 6 0;
#X connect 19 0 18 1;
#X connect 19 0 15 0;
#X coords 0 -1 1 1 200 200 1 500 100;
