#N canvas 565 31 960 983 12;
#X obj 55 149 delwrite~ tapedelay 2000;
#X obj 316 160 delread4~ tapedelay;
#X obj 316 134 line~;
#X msg 316 108 \$1 100;
#X obj 317 448 s~ feedback;
#X obj 65 104 r~ feedback;
#X obj 318 421 *~;
#X obj 56 63 inlet~;
#X obj 136 314 outlet~;
#X text 317 40 delay time;
#X obj 317 304 lop~;
#X obj 318 357 hip~;
#X obj 316 63 r delay-time;
#X obj 341 389 r feedback;
#X obj 382 234 r highcut;
#X obj 371 304 r lowcut;
#X connect 1 0 10 0;
#X connect 1 0 8 0;
#X connect 2 0 1 0;
#X connect 3 0 2 0;
#X connect 5 0 0 0;
#X connect 6 0 4 0;
#X connect 7 0 0 0;
#X connect 10 0 11 0;
#X connect 11 0 6 0;
#X connect 12 0 3 0;
#X connect 13 0 6 1;
#X connect 14 0 10 1;
#X connect 15 0 11 1;
#X coords 0 983 1 982 200 200 0;
