#N canvas 682 12 1218 983 12;
#X obj 161 199 delwrite~ tapedelay 2000;
#X obj 300 429 delread4~ tapedelay;
#X obj 59 395 *~;
#X obj 300 403 line~;
#X msg 300 377 \$1 100;
#X obj 301 573 lop~ 8000;
#X obj 302 601 lop~ 8000;
#X obj 302 626 hip~ 300;
#X obj 301 717 s~ feedback;
#X obj 171 154 r~ feedback;
#X obj 302 690 *~;
#X floatatom 443 685 5 0 0.98 0 feedback - - 0;
#X obj 166 392 *~;
#X floatatom 482 569 5 1000 10000 0 - - - 0;
#X floatatom 535 615 5 300 1000 0 - - - 0;
#X obj 526 123 bng 20 250 50 0 empty empty empty 0 -10 0 12 #ff0400 #000000 #000000;
#X obj 290 122 s reset;
#X obj 482 502 r reset;
#X msg 482 533 8000;
#X obj 536 551 r reset;
#X msg 537 582 300;
#X obj 444 621 r reset;
#X msg 444 652 0.5;
#X floatatom 516 224 5 0 0 1 Dry - - 0;
#X floatatom 603 224 5 0 0 1 Wet - - 0;
#X obj 56 63 inlet~;
#X obj 119 510 outlet~;
#X obj 300 332 inlet;
#X obj 102 241 inlet;
#X obj 189 241 inlet;
#X obj 353 63 loadbang;
#X floatatom 590 285 5 0 0 0 delay\ time - - 0;
#X connect 1 0 5 0;
#X connect 1 0 12 0;
#X connect 2 0 26 0;
#X connect 3 0 1 0;
#X connect 4 0 3 0;
#X connect 5 0 6 0;
#X connect 6 0 7 0;
#X connect 7 0 10 0;
#X connect 9 0 0 0;
#X connect 10 0 8 0;
#X connect 11 0 10 1;
#X connect 12 0 26 0;
#X connect 13 0 5 1;
#X connect 13 0 6 1;
#X connect 14 0 7 1;
#X connect 15 0 16 0;
#X connect 17 0 18 0;
#X connect 18 0 13 0;
#X connect 19 0 20 0;
#X connect 20 0 14 0;
#X connect 21 0 22 0;
#X connect 22 0 11 0;
#X connect 23 0 2 1;
#X connect 24 0 12 1;
#X connect 25 0 0 0;
#X connect 25 0 2 0;
#X connect 25 1 0 0;
#X connect 25 1 2 0;
#X connect 27 0 4 0;
#X connect 27 0 31 0;
#X connect 28 0 23 0;
#X connect 29 0 24 0;
#X connect 30 0 16 0;
#X coords 0 -1 1 1 300 300 1 500 100;
