#N canvas 149 122 788 662 12;
#X floatatom 222 246 5 0 1000 2 attack - - 0;
#X floatatom 279 245 5 0 1000 2 decay - - 0;
#X floatatom 337 245 5 0 1 2 sustain - - 0;
#X floatatom 401 245 5 0 1000 2 release - - 0;
#X obj 182 182 r bang;
#X obj 274 181 r bang;
#X obj 364 177 r bang;
#X obj 424 174 r bang;
#X floatatom 608 235 5 0 1000 2 hold - - 0;
#X obj 655 163 r bang;
#X obj 459 282 expr ($f1 + $f2 + $f3);
#X msg 225 374 \$1 \$2 \$3 \$4 \$5;
#X obj 225 337 pack \$1 \$2 \$3 \$4 \$5, f 47;
#X obj 126 440 s bang;
#X obj 126 415 metro 10;
#X obj 126 360 bng 20 250 50 0 empty empty empty 0 -10 0 12 #fcfcfc #000000 #000000;
#X obj 126 390 t b b 0;
#X obj 225 442 print;
#X connect 0 0 10 0;
#X connect 0 0 12 0;
#X connect 1 0 10 1;
#X connect 1 0 12 1;
#X connect 2 0 12 2;
#X connect 3 0 12 3;
#X connect 4 0 0 0;
#X connect 5 0 1 0;
#X connect 6 0 2 0;
#X connect 7 0 3 0;
#X connect 8 0 10 2;
#X connect 9 0 8 0;
#X connect 10 0 12 4;
#X connect 11 0 17 0;
#X connect 12 0 11 0;
#X connect 14 0 13 0;
#X connect 15 0 16 0;
#X connect 16 0 14 0;
