#N canvas 310 143 1019 656 12;
#X obj 20 18 sfplay2;
#X obj 162 182 delwrite~ tapedelay 2000;
#X obj 335 337 delread4~ tapedelay;
#X obj 11 410 *~;
#X floatatom 58 355 5 0 1 0 dry - - 0;
#X obj 75 520 dac~;
#X obj 335 311 line~;
#X msg 335 285 \$1 100;
#X floatatom 254 236 5 100 2000 0 delay\ time - - 0;
#X obj 336 481 lop~ 8000;
#X obj 337 509 lop~ 8000;
#X obj 337 534 hip~ 300;
#X obj 336 625 s~ feedback;
#X obj 172 137 r~ feedback;
#X obj 337 598 *~;
#X floatatom 410 567 5 0 0.98 0 feedback - - 0;
#X obj 118 407 *~;
#X floatatom 136 355 5 0 1 0 wet - - 0;
#X floatatom 517 477 5 1000 10000 0 - - - 0;
#X floatatom 517 500 5 300 1000 0 - - - 0;
#X obj 456 56 taptempo;
#X connect 0 0 3 0;
#X connect 0 0 1 0;
#X connect 2 0 9 0;
#X connect 2 0 16 0;
#X connect 3 0 5 0;
#X connect 3 0 5 1;
#X connect 4 0 3 1;
#X connect 6 0 2 0;
#X connect 7 0 6 0;
#X connect 8 0 7 0;
#X connect 9 0 10 0;
#X connect 10 0 11 0;
#X connect 11 0 14 0;
#X connect 13 0 1 0;
#X connect 14 0 12 0;
#X connect 15 0 14 1;
#X connect 16 0 5 0;
#X connect 16 0 5 1;
#X connect 17 0 16 1;
#X connect 18 0 9 1;
#X connect 18 0 10 1;
#X connect 19 0 11 1;
#X connect 20 0 8 0;
