#N canvas -14 20 960 983 12;
#X obj 233 45 sfplay2;
#X obj 475 193 hradio 20 1 0 2 empty empty empty 0 -10 0 12 #fcfcfc #000000 #000000 0;
#X floatatom 475 226 5 0 0 0 - - - 0;
#X obj 35 54 vsl 20 100 0 2 0 0 empty empty Input -5 -9 0 12 #fcfcfc #000000 #000000 0 1;
#X obj 364 307 sel 0;
#X obj 209 578 *~;
#X msg 292 430 1;
#X obj 260 738 dac~;
#X obj 319 579 *~;
#X msg 339 430 0;
#X msg 425 430 1;
#X msg 486 430 0;
#X obj 209 603 *~ 0;
#X obj 231 245 *~ 0;
#X obj 319 604 *~ 1;
#X text 24 140 0;
#X obj 108 53 vsl 20 100 0 2 0 0 empty empty Output -10 -9 0 12 #fcfcfc #000000 #000000 0 1;
#X text 97 139 0;
#X text 24 51 2;
#X text 97 50 2;
#X connect 0 0 13 0;
#X connect 1 0 2 0;
#X connect 2 0 4 0;
#X connect 3 0 13 1;
#X connect 4 0 6 0;
#X connect 4 0 9 0;
#X connect 4 1 10 0;
#X connect 4 1 11 0;
#X connect 5 0 12 0;
#X connect 6 0 5 1;
#X connect 8 0 14 0;
#X connect 9 0 8 1;
#X connect 10 0 8 1;
#X connect 11 0 5 1;
#X connect 12 0 7 0;
#X connect 12 0 7 1;
#X connect 13 0 5 0;
#X connect 13 0 8 0;
#X connect 14 0 7 0;
#X connect 14 0 7 1;
