#N canvas -14 20 1920 983 12;
#X obj 352 366 hradio 40 1 0 2 empty empty Mode 0 -10 0 12 #fcfcfc #000000 #000000 0;
#X obj 367 185 vsl 20 100 0 2 0 0 empty empty Input -5 -9 0 12 #fcfcfc #000000 #000000 0 1;
#X obj 812 276 *~ 0;
#X text 356 271 0;
#X obj 417 185 vsl 20 100 0 2 0 0 empty empty Output -10 -9 0 12 #fcfcfc #000000 #000000 0 1;
#X text 406 271 0;
#X text 356 182 2;
#X text 406 182 2;
#X obj 611 742 ppdelay, f 17;
#X obj 1057 284 mode;
#X obj 1063 23 loadbang;
#X obj 311 319 hsl 170 20 0 100 0 1 empty empty MIX 70 -10 0 12 #fcfcfc #000000 #000000 8450 1;
#X floatatom 1184 244 5 0 0 1 Dry - - 0;
#X floatatom 1271 244 5 0 0 1 Wet - - 0;
#X obj 1190 129 expr 100 - $f1;
#X obj 1274 178 / 100;
#X obj 1191 177 / 100;
#X obj 1166 353 *~;
#X obj 1271 714 *~;
#X obj 1202 842 *~;
#X obj 114 179 taptempo;
#X obj 116 370 hsl 170 20 0 1 0 0 empty empty Feedback -2 -10 0 12 #fcfcfc #000000 #000000 0 1;
#X obj 812 99 inlet~;
#X obj 1194 918 outlet~;
#X obj 736 128 bng 20 250 50 0 empty empty Reset 0 -10 0 12 #ff0400 #000000 #000000;
#X obj 960 23 s reset;
#X obj 510 35 r reset;
#X msg 510 60 1;
#X obj 239 44 r reset;
#X msg 239 69 50;
#X obj 160 41 r reset;
#X msg 160 66 0.5;
#X obj 314 43 r reset;
#X msg 314 68 0;
#X obj 1063 48 s reset;
#X obj 737 171 bng 20 250 50 0 empty empty random 0 -10 0 12 #9c00ff #000000 #000000;
#X obj 86 41 r reset;
#X msg 86 71 500;
#X obj 587 6 r random;
#X obj 964 94 s random;
#X obj 587 31 random 100;
#X obj 24 536 r random;
#X obj 24 561 random 100;
#X obj 24 586 expr $f1 / 100;
#X obj 13 101 random 700;
#X obj 13 126 + 300;
#X obj 13 65 r random;
#X obj 114 471 hsl 170 20 0 127 0 0 empty empty Lowcut -2 -10 0 12 #fcfcfc #000000 #000000 0 1;
#X obj 306 471 hsl 170 20 127 0 0 0 empty empty Highcut -2 -10 0 12 #fcfcfc #000000 #000000 0 1;
#X obj 393 42 r reset;
#X msg 393 67 127;
#X obj 26 623 r random;
#X obj 26 648 random 127;
#X obj 26 680 r random;
#X obj 26 705 random 127;
#X obj 385 743 single-echo;
#X text 316 413 ping pong / Single Echo;
#X obj 708 8 r random;
#X obj 708 32 random 2;
#X obj 508 212 adsr;
#X connect 0 0 9 1;
#X connect 1 0 2 1;
#X connect 2 0 9 0;
#X connect 2 0 17 0;
#X connect 4 0 19 1;
#X connect 8 0 18 0;
#X connect 9 0 8 0;
#X connect 9 1 55 0;
#X connect 10 0 34 0;
#X connect 11 0 14 0;
#X connect 11 0 15 0;
#X connect 12 0 17 1;
#X connect 13 0 18 1;
#X connect 14 0 16 0;
#X connect 15 0 13 0;
#X connect 16 0 12 0;
#X connect 17 0 19 0;
#X connect 18 0 59 0;
#X connect 19 0 23 0;
#X connect 20 0 8 2;
#X connect 20 0 55 1;
#X connect 21 0 8 3;
#X connect 21 0 55 2;
#X connect 22 0 2 0;
#X connect 24 0 25 0;
#X connect 26 0 27 0;
#X connect 27 0 1 0;
#X connect 27 0 4 0;
#X connect 28 0 29 0;
#X connect 29 0 11 0;
#X connect 30 0 31 0;
#X connect 31 0 21 0;
#X connect 32 0 33 0;
#X connect 33 0 0 0;
#X connect 33 0 47 0;
#X connect 35 0 39 0;
#X connect 36 0 37 0;
#X connect 37 0 20 0;
#X connect 38 0 40 0;
#X connect 40 0 11 0;
#X connect 41 0 42 0;
#X connect 42 0 43 0;
#X connect 43 0 21 0;
#X connect 44 0 45 0;
#X connect 45 0 20 0;
#X connect 46 0 44 0;
#X connect 47 0 8 1;
#X connect 47 0 55 4;
#X connect 48 0 8 4;
#X connect 48 0 55 3;
#X connect 49 0 50 0;
#X connect 50 0 48 0;
#X connect 51 0 52 0;
#X connect 52 0 47 0;
#X connect 53 0 54 0;
#X connect 54 0 48 0;
#X connect 55 0 18 0;
#X connect 57 0 58 0;
#X connect 58 0 0 0;
#X connect 59 0 19 0;
#X coords 0 -1 1 1 700 400 1 100 100;
