#N canvas -14 20 1920 983 12;
#X obj 266 202 hradio 40 1 0 2 empty empty Mode 0 -10 0 12 #fcfcfc #000000 #000000 0;
#X obj 483 236 vsl 20 100 0 2 0 0 empty empty Input -5 -9 0 12 #fcfcfc #000000 #000000 0 1;
#X obj 812 276 *~ 0;
#X text 472 322 0;
#X obj 533 236 vsl 20 100 0 2 0 0 empty empty Output -10 -9 0 12 #fcfcfc #000000 #000000 0 1;
#X text 522 322 0;
#X text 472 233 2;
#X text 522 233 2;
#X obj 611 742 ppdelay, f 17;
#X obj 1076 598 *~ 0;
#X obj 1057 284 mode;
#X obj 1063 23 loadbang;
#X obj 242 145 hsl 170 20 0 100 0 1 empty empty MIX 70 -10 0 12 #fcfcfc #000000 #000000 8450 1;
#X floatatom 1184 244 5 0 0 1 Dry - - 0;
#X floatatom 1271 244 5 0 0 1 Wet - - 0;
#X obj 1190 129 expr 100 - $f1;
#X obj 1274 178 / 100;
#X obj 1191 177 / 100;
#X obj 1166 353 *~;
#X obj 1210 768 *~;
#X obj 1209 859 *~;
#X obj 115 135 taptempo;
#X text 230 249 ping pong / Nothing;
#X obj 242 316 hsl 170 20 0 1 0 0 empty empty Feedback -2 -10 0 12 #fcfcfc #000000 #000000 0 1;
#X obj 812 99 inlet~;
#X obj 1209 884 outlet~;
#X obj 513 147 bng 20 250 50 0 empty empty Reset 0 -10 0 12 #ff0400 #000000 #000000;
#X obj 656 53 s reset;
#X obj 510 35 r reset;
#X msg 510 60 1;
#X obj 239 44 r reset;
#X msg 239 69 50;
#X obj 160 41 r reset;
#X msg 160 66 0.5;
#X obj 380 44 r reset;
#X msg 380 69 0;
#X obj 1063 48 s reset;
#X connect 0 0 10 1;
#X connect 1 0 2 1;
#X connect 2 0 10 0;
#X connect 2 0 18 0;
#X connect 4 0 20 1;
#X connect 8 0 19 0;
#X connect 9 0 19 0;
#X connect 10 0 8 0;
#X connect 10 1 9 0;
#X connect 11 0 36 0;
#X connect 12 0 15 0;
#X connect 12 0 16 0;
#X connect 13 0 18 1;
#X connect 14 0 19 1;
#X connect 15 0 17 0;
#X connect 16 0 14 0;
#X connect 17 0 13 0;
#X connect 18 0 20 0;
#X connect 19 0 20 0;
#X connect 20 0 25 0;
#X connect 21 0 8 1;
#X connect 23 0 8 2;
#X connect 24 0 2 0;
#X connect 26 0 27 0;
#X connect 28 0 29 0;
#X connect 29 0 1 0;
#X connect 29 0 4 0;
#X connect 30 0 31 0;
#X connect 31 0 12 0;
#X connect 32 0 33 0;
#X connect 33 0 23 0;
#X connect 34 0 35 0;
#X connect 35 0 0 0;
#X coords 0 -1 1 1 500 250 1 100 100;
