#N canvas 119 81 1920 966 12;
#X obj 1170 683 osc~;
#X obj 1170 402 metro;
#X obj 1170 520 t f b;
#X obj 1202 547 random 2;
#X obj 1170 628 pack f f;
#X obj 1202 601 *;
#X obj 1170 652 line~;
#X obj 1202 65 r timeChange;
#X obj 1202 89 random 3;
#X obj 1202 113 sel 0;
#X obj 1202 137 random 2;
#X obj 1201 189 t b f;
#X obj 1201 213 /;
#X obj 127 261 hsl 350 30 100 400 0 0 empty empty Speed -2 -10 0 12 #fcfcfc #000000 #000000 0 1;
#X obj 875 92 s period;
#X obj 1138 189 r period;
#X obj 1201 165 + 1;
#X text 1295 91 nombre random (0 \, 3) si 0 on random (0 ou 1) + 1 et on divise la valeur du slider par cette valeur;
#X floatatom 1201 237 5 0 0 0 - - - 0;
#X obj 1220 573 r period;
#X obj 1188 429 s timeChange;
#X obj 1170 489 + 50;
#X obj 129 188 tgl 25 0 empty empty Start 0 -10 0 12 #00ff04 #000000 #000000 0 1;
#X obj 1051 632 snapshot~;
#X obj 778 92 metro 50;
#X obj 778 117 s clock;
#X obj 374 138 tgl 25 0 empty empty Debug\ Mode 30 12 1 12 #bbbbbb #000000 #000000 0 1;
#X obj 1051 608 r clock;
#X floatatom 372 212 8 0 0 3 Frequency\ Value - - 0;
#X obj 704 395 r timeChange;
#X obj 704 419 random 2;
#X obj 704 443 sel 0;
#X obj 704 467 random 2;
#X obj 781 467 random 2;
#X obj 704 551 pack f f;
#X obj 781 519 *;
#X obj 799 491 r period;
#X obj 704 575 line~;
#X obj 613 600 snapshot~;
#X obj 613 576 r clock;
#X floatatom 373 174 8 0 0 3 Envelope\ Value - - 0;
#X obj 1015 720 *~;
#X obj 1177 737 *~;
#X text 1142 10 Time Changer random la vitesse à laquelle change les fréquences;
#X text 669 35 Afficher les fréquences produites;
#X text 619 364 Randomiser encore plus l'enveloppe;
#X obj 1223 684 inlet~;
#X obj 1170 456 random 7000;
#X obj 1178 770 *~;
#X obj 1178 794 outlet~;
#X connect 0 0 41 1;
#X connect 1 0 20 0;
#X connect 1 0 47 0;
#X connect 2 0 4 0;
#X connect 2 1 3 0;
#X connect 3 0 5 0;
#X connect 4 0 6 0;
#X connect 5 0 4 1;
#X connect 6 0 0 0;
#X connect 6 0 23 0;
#X connect 7 0 8 0;
#X connect 8 0 9 0;
#X connect 9 0 10 0;
#X connect 10 0 16 0;
#X connect 11 0 12 0;
#X connect 11 1 12 1;
#X connect 12 0 18 0;
#X connect 13 0 14 0;
#X connect 15 0 12 0;
#X connect 16 0 11 0;
#X connect 18 0 1 1;
#X connect 19 0 5 1;
#X connect 21 0 2 0;
#X connect 22 0 1 0;
#X connect 22 0 48 0;
#X connect 23 0 28 0;
#X connect 24 0 25 0;
#X connect 26 0 24 0;
#X connect 27 0 23 0;
#X connect 29 0 30 0;
#X connect 30 0 31 0;
#X connect 31 0 32 0;
#X connect 31 0 33 0;
#X connect 32 0 34 0;
#X connect 33 0 35 0;
#X connect 34 0 37 0;
#X connect 35 0 34 1;
#X connect 36 0 35 1;
#X connect 37 0 38 0;
#X connect 37 0 41 0;
#X connect 38 0 40 0;
#X connect 39 0 38 0;
#X connect 41 0 42 0;
#X connect 42 0 48 1;
#X connect 46 0 42 1;
#X connect 46 1 42 1;
#X connect 47 0 21 0;
#X connect 48 0 49 0;
#X coords 0 -1 1 1 400 200 1 100 100;
