#N canvas 289 223 1009 716 12;
#X obj 468 140 delwrite~ chorus 1000;
#X obj 470 389 delread4~ chorus 1000;
#X floatatom 113 166 5 0 6 1 rate - - 0;
#X obj 470 239 osc~;
#X obj 470 264 *~;
#X floatatom 204 165 5 0 1 1 depth - - 0;
#X obj 470 321 +~;
#X msg 598 241 \$1 20;
#X obj 598 266 line~;
#X floatatom 242 361 5 20 40 1 del_time - - 0;
#X obj 470 464 *~;
#X floatatom 115 363 5 0 1 1 fx_amount - - 0;
#X text 111 146 LFO;
#X text 513 320 modulation du temps du delay par un lfo;
#X obj 429 51 inlet~;
#X obj 430 558 outlet~;
#N canvas 818 332 450 250 (subpatch) 0;
#X array LFO 100 float 3;
#A 0 0 0 0 0 0 0 0 0 0 0 0 0 0 0 0 0 0 0 0 0 0 0 0 0 0 0 0 0 0 0 0 0 0 0 0 0 0 0 0 0 0 0 0 0 0 0 0 0 0 0 0 0 0 0 0 0 0 0 0 0 0 0 0 0 0 0 0 0 0 0 0 0 0 0 0 0 0 0 0 0 0 0 0 0 0 0 0 0 0 0 0 0 0 0 0 0 0 0 0 0;
#X coords 0 1 100 -1 200 140 1 0 0;
#X restore 112 207 graph;
#X connect 1 0 10 0;
#X connect 2 0 3 0;
#X connect 3 0 4 0;
#X connect 4 0 6 0;
#X connect 5 0 4 1;
#X connect 6 0 1 0;
#X connect 7 0 8 0;
#X connect 8 0 6 1;
#X connect 9 0 7 0;
#X connect 10 0 15 0;
#X connect 11 0 10 1;
#X connect 14 0 15 0;
#X connect 14 0 0 0;
#X coords 0 -1 1 1 300 300 1 100 100;
