#N canvas 764 57 1085 949 12;
#X obj 162 182 delwrite~ tapedelay 2000;
#X obj 514 462 delread4~ tapedelay;
#X obj 68 626 *~;
#X obj 132 736 dac~;
#X obj 514 436 line~;
#X msg 514 410 \$1 100;
#X floatatom 408 359 5 100 2000 0 delay\ time - - 0;
#X obj 515 606 lop~ 8000;
#X obj 516 634 lop~ 8000;
#X obj 516 659 hip~ 300;
#X obj 515 750 s~ feedback;
#X obj 172 137 r~ feedback;
#X obj 516 723 *~;
#X floatatom 657 718 5 0 0.98 0 feedback - - 0;
#X obj 175 623 *~;
#X floatatom 696 602 5 1000 10000 0 - - - 0;
#X floatatom 749 648 5 300 1000 0 - - - 0;
#X obj 408 179 taptempo;
#X obj 41 24 sfplay2;
#X obj 595 141 bng 20 250 50 0 empty empty empty 0 -10 0 12 #ff0400 #000000 #000000;
#X obj 596 175 s reset;
#X obj 696 535 r reset;
#X msg 696 566 8000;
#X obj 750 584 r reset;
#X msg 751 615 300;
#X obj 658 654 r reset;
#X msg 658 685 0.5;
#X obj 114 360 hsl 170 20 0 100 0 1 empty empty MIX 70 -10 0 12 #fcfcfc #000000 #000000 0 1;
#X floatatom 111 518 5 0 0 1 Dry - - 0;
#X floatatom 198 518 5 0 0 1 Wet - - 0;
#X obj 117 403 expr 100 - $f1;
#X obj 201 452 / 100;
#X obj 118 451 / 100;
#X connect 1 0 7 0;
#X connect 1 0 14 0;
#X connect 2 0 3 0;
#X connect 2 0 3 1;
#X connect 4 0 1 0;
#X connect 5 0 4 0;
#X connect 6 0 5 0;
#X connect 7 0 8 0;
#X connect 8 0 9 0;
#X connect 9 0 12 0;
#X connect 11 0 0 0;
#X connect 12 0 10 0;
#X connect 13 0 12 1;
#X connect 14 0 3 0;
#X connect 14 0 3 1;
#X connect 15 0 7 1;
#X connect 15 0 8 1;
#X connect 16 0 9 1;
#X connect 17 0 6 0;
#X connect 18 0 2 0;
#X connect 18 0 0 0;
#X connect 19 0 20 0;
#X connect 21 0 22 0;
#X connect 22 0 15 0;
#X connect 23 0 24 0;
#X connect 24 0 16 0;
#X connect 25 0 26 0;
#X connect 26 0 13 0;
#X connect 27 0 30 0;
#X connect 27 0 31 0;
#X connect 28 0 2 1;
#X connect 29 0 14 1;
#X connect 30 0 32 0;
#X connect 31 0 29 0;
#X connect 32 0 28 0;
