#N canvas 316 168 497 314 12;
#X obj 21 55 expr 100 - $f1;
#X obj 94 125 / 100;
#X obj 21 90 / 100;
#X obj 94 90 r mix;
#X obj 21 25 r mix;
#X obj 21 115 outlet;
#X obj 94 150 outlet;
#X connect 0 0 2 0;
#X connect 1 0 6 0;
#X connect 2 0 5 0;
#X connect 3 0 1 0;
#X connect 4 0 0 0;
