#N canvas -14 20 1920 983 12;
#X obj 352 366 hradio 40 1 0 2 empty empty Mode 0 -10 0 12 #fcfcfc #000000 #000000 0;
#X obj 367 185 vsl 20 100 0 2 0 0 empty empty Input -5 -9 0 12 #fcfcfc #000000 #000000 0 1;
#X text 356 271 0;
#X obj 426 185 vsl 20 100 0 2 0 0 empty empty Output -10 -9 0 12 #fcfcfc #000000 #000000 0 1;
#X text 415 271 0;
#X text 356 182 2;
#X text 415 182 2;
#X obj 980 420 ppdelay, f 8;
#X obj 980 261 mode;
#X obj 1218 8 loadbang;
#X obj 311 319 hsl 170 20 0 100 0 1 empty empty MIX 70 -10 0 12 #fcfcfc #000000 #000000 8450 1;
#X floatatom 1217 244 5 0 0 1 Dry - - 0;
#X floatatom 1291 244 5 0 0 1 Wet - - 0;
#X obj 1199 382 *~;
#X obj 1273 459 *~;
#X obj 1200 562 *~;
#X obj 110 183 taptempo;
#X obj 113 390 hsl 170 20 0 1 0 0 empty empty Feedback -2 -10 0 12 #fcfcfc #000000 #000000 0 1;
#X obj 980 100 inlet~;
#X obj 1200 597 outlet~;
#X obj 736 128 bng 20 250 50 0 empty empty Reset 0 -10 0 12 #ff0400 #000000 #000000;
#X obj 736 8 s reset;
#X obj 367 45 r reset;
#X msg 367 70 1;
#X obj 308 45 r reset;
#X msg 308 70 50;
#X obj 111 890 r reset;
#X msg 111 915 0.5;
#X obj 352 670 r reset;
#X msg 352 695 0;
#X obj 1218 33 s reset;
#X obj 737 171 bng 20 250 50 0 empty empty random 0 -10 0 12 #9c00ff #000000 #000000;
#X obj 110 40 r reset;
#X msg 110 70 500;
#X obj 736 40 s random;
#X obj 111 840 expr $f1 / 100;
#X obj 113 470 hsl 170 20 0 127 0 0 empty empty Lowcut -2 -10 0 12 #fcfcfc #000000 #000000 0 1;
#X obj 313 470 hsl 170 20 127 0 0 0 empty empty Highcut -2 -10 0 12 #fcfcfc #000000 #000000 0 1;
#X obj 310 585 r reset;
#X msg 310 610 127;
#X obj 1004 375 single-echo;
#X text 316 413 ping pong / Single Echo;
#X obj 508 212 adsr;
#X obj 352 732 rand-param 0 2;
#X obj 308 10 rand-param 0 100;
#X obj 110 9 rand-param 300 1000;
#X obj 111 815 rand-param 0 100;
#X obj 111 511 rand-param 0 127;
#X obj 310 510 rand-param 0 127;
#X obj 110 663 s delay-time;
#X obj 111 617 s feedback;
#X obj 112 551 s lowcut;
#X obj 310 551 s highcut;
#X obj 110 729 r reset;
#X msg 110 754 0;
#X obj 426 45 r reset;
#X msg 426 70 1;
#X obj 426 550 s output;
#X obj 998 166 r input;
#X obj 1218 530 r output;
#X obj 367 620 s input;
#X obj 308 784 s mix;
#X obj 352 810 s delay-mode;
#X obj 1093 241 r delay-mode;
#X obj 1217 163 mix-data, f 11;
#X obj 508 620 s lfo;
#X obj 508 690 s depth;
#X obj 608 658 s chorus-delay;
#X obj 511 122 hsl 80 20 0 6 0 0 empty empty LFO\ Rate -2 -10 0 12 #fcfcfc #000000 #000000 0 1;
#X obj 511 162 hsl 80 20 0 1 0 0 empty empty Depth -2 -10 0 12 #fcfcfc #000000 #000000 0 1;
#X obj 611 162 hsl 80 20 20 40 0 0 empty empty Delay\ Time -2 -10 0 12 #fcfcfc #000000 #000000 0 1;
#X text 605 121 Chorus;
#X obj 980 195 *~;
#X obj 508 800 s~ post-adsr;
#X obj 1273 496 s~ pre-adsr;
#X obj 1024 543 r~ post-adsr;
#X obj 508 45 r~ pre-adsr;
#X obj 1211 440 chorus;
#X obj 508 10 rand-param 0 6;
#X obj 507 859 expr $f1 / 100;
#X obj 507 834 rand-param 0 100;
#X obj 608 689 rand-param 20 40;
#X connect 0 0 62 0;
#X connect 1 0 60 0;
#X connect 3 0 57 0;
#X connect 7 0 77 0;
#X connect 8 0 7 0;
#X connect 8 1 40 0;
#X connect 9 0 30 0;
#X connect 10 0 61 0;
#X connect 11 0 13 1;
#X connect 12 0 14 1;
#X connect 13 0 15 0;
#X connect 14 0 74 0;
#X connect 15 0 19 0;
#X connect 16 0 49 0;
#X connect 17 0 50 0;
#X connect 18 0 72 0;
#X connect 20 0 21 0;
#X connect 22 0 23 0;
#X connect 23 0 1 0;
#X connect 24 0 25 0;
#X connect 25 0 10 0;
#X connect 26 0 27 0;
#X connect 27 0 17 0;
#X connect 28 0 29 0;
#X connect 29 0 0 0;
#X connect 31 0 34 0;
#X connect 32 0 33 0;
#X connect 33 0 16 0;
#X connect 35 0 17 0;
#X connect 36 0 51 0;
#X connect 37 0 52 0;
#X connect 38 0 39 0;
#X connect 39 0 37 0;
#X connect 42 0 73 0;
#X connect 43 0 0 0;
#X connect 44 0 10 0;
#X connect 45 0 16 0;
#X connect 46 0 35 0;
#X connect 47 0 36 0;
#X connect 48 0 37 0;
#X connect 53 0 54 0;
#X connect 54 0 36 0;
#X connect 55 0 56 0;
#X connect 56 0 3 0;
#X connect 58 0 72 1;
#X connect 59 0 15 1;
#X connect 63 0 8 1;
#X connect 64 0 11 0;
#X connect 64 1 12 0;
#X connect 68 0 65 0;
#X connect 69 0 66 0;
#X connect 70 0 67 0;
#X connect 72 0 8 0;
#X connect 72 0 13 0;
#X connect 75 0 15 0;
#X connect 76 0 42 0;
#X connect 77 0 14 0;
#X connect 78 0 68 0;
#X connect 79 0 69 0;
#X connect 80 0 79 0;
#X connect 81 0 70 0;
#X coords 0 -1 1 1 700 400 1 100 100;
