#N canvas 785 20 960 983 12;
#X obj 58 200 delwrite~ ping 2000;
#X obj 104 119 delwrite~ pong 2000;
#X obj 282 189 delread4~ ping;
#X obj 471 190 delread4~ pong;
#X msg 471 118 \$1 100;
#X obj 471 143 line~;
#X obj 283 252 *~;
#X obj 471 255 *~;
#X obj 283 383 s~ ping;
#X obj 104 79 r~ ping;
#X obj 57 167 r~ pong;
#X obj 470 382 s~ pong;
#X msg 283 117 \$1 100;
#X obj 283 142 line~;
#X obj 33 53 inlet~;
#X obj 364 383 outlet~;
#X text 382 43 delay time;
#X text 401 165 feedback;
#X text 300 552 lowcut;
#X text 430 553 highcut;
#X obj 283 289 hip~;
#X obj 283 326 lop~;
#X obj 471 285 hip~;
#X obj 471 322 lop~;
#X obj 382 65 r delay-time;
#X obj 303 577 r lowcut;
#X obj 432 577 r highcut;
#X obj 390 190 r feedback;
#X connect 2 0 6 0;
#X connect 3 0 7 0;
#X connect 4 0 5 0;
#X connect 5 0 3 0;
#X connect 6 0 20 0;
#X connect 6 0 15 0;
#X connect 7 0 22 0;
#X connect 7 0 15 0;
#X connect 9 0 1 0;
#X connect 10 0 0 0;
#X connect 12 0 13 0;
#X connect 13 0 2 0;
#X connect 14 0 1 0;
#X connect 14 0 0 0;
#X connect 20 0 21 0;
#X connect 21 0 8 0;
#X connect 22 0 23 0;
#X connect 23 0 11 0;
#X connect 24 0 12 0;
#X connect 24 0 4 0;
#X connect 25 0 20 1;
#X connect 25 0 22 1;
#X connect 26 0 21 1;
#X connect 26 0 23 1;
#X connect 27 0 6 1;
#X connect 27 0 7 1;
#X coords 0 983 1 982 250 200 0;
