#N canvas 659 208 717 624 12;
#X obj 109 120 bng 20 250 50 0 empty empty click 0 30 0 12 #00ff04 #000000 #000000;
#X obj 414 99 i;
#X obj 466 96 + 1;
#X obj 414 124 mod 4;
#X obj 414 149 sel 0 1 2 3, f 40;
#X obj 109 171 hradio 20 1 0 4 empty empty empty 0 -10 0 12 #fcfcfc #000000 #000000 0;
#X obj 414 232 timer;
#X obj 483 180 t b b;
#X obj 552 180 t b b;
#X floatatom 414 257 5 0 0 0 - - - 0;
#X obj 416 337 list store;
#X msg 414 288 append \$1;
#X obj 621 180 t b b b;
#X obj 416 362 unpack f f f, f 26;
#X floatatom 416 392 5 0 0 0 - - - 0;
#X floatatom 505 391 5 0 0 0 - - - 0;
#X floatatom 595 391 5 0 0 0 - - - 0;
#X obj 417 428 expr ($f1 + $f2 + $f3)/3, f 26;
#X floatatom 109 198 5 0 0 3 - - - 0;
#X obj 160 120 bng 20 250 50 0 empty empty reset 0 30 0 12 #bbbbbb #000000 #000000;
#X obj 535 61 t 0 b;
#X obj 417 459 expr (60000/$f1);
#X floatatom 152 198 5 0 0 3 - - - 0;
#X obj 94 483 outlet;
#X obj 150 484 outlet;
#X obj 99 43 inlet;
#X text 150 217 BPM;
#X text 107 216 ms;
#X connect 0 0 1 0;
#X connect 1 0 2 0;
#X connect 1 0 3 0;
#X connect 2 0 1 1;
#X connect 3 0 4 0;
#X connect 3 0 5 0;
#X connect 4 0 6 0;
#X connect 4 1 7 0;
#X connect 4 2 8 0;
#X connect 4 3 12 0;
#X connect 6 0 9 0;
#X connect 7 0 6 0;
#X connect 7 1 6 1;
#X connect 8 0 6 0;
#X connect 8 1 6 1;
#X connect 9 0 11 0;
#X connect 10 0 13 0;
#X connect 11 0 10 0;
#X connect 12 0 10 1;
#X connect 12 1 10 0;
#X connect 12 2 6 1;
#X connect 13 0 14 0;
#X connect 13 1 15 0;
#X connect 13 2 16 0;
#X connect 14 0 17 0;
#X connect 15 0 17 1;
#X connect 16 0 17 2;
#X connect 17 0 18 0;
#X connect 18 0 21 0;
#X connect 18 0 23 0;
#X connect 19 0 20 0;
#X connect 20 0 1 1;
#X connect 20 0 22 0;
#X connect 20 0 18 0;
#X connect 20 1 10 1;
#X connect 21 0 22 0;
#X connect 22 0 24 0;
#X connect 25 0 18 0;
#X coords 0 -1 1 1 100 140 1 100 100;
